<svg viewBox="0 0 560 280" xmlns="http://www.w3.org/2000/svg" style="max-width:100%;height:auto;font-family:'IBM Plex Sans',system-ui,sans-serif">
  <rect x="20" y="20" width="140" height="40" rx="6" fill="#f5f3ef" stroke="#6b4c3b" stroke-width="1.5"/>
  <text x="90" y="45" text-anchor="middle" font-size="14" fill="#1a1a1a" font-weight="600">Item: "user_42"</text>

  <rect x="20" y="90" width="140" height="32" rx="6" fill="#fff8e1" stroke="#c8c4bc" stroke-width="1"/>
  <text x="90" y="111" text-anchor="middle" font-size="13" fill="#4a4a4a">h₁ → bit 2</text>

  <rect x="20" y="128" width="140" height="32" rx="6" fill="#fff8e1" stroke="#c8c4bc" stroke-width="1"/>
  <text x="90" y="149" text-anchor="middle" font-size="13" fill="#4a4a4a">h₂ → bit 5</text>

  <rect x="20" y="166" width="140" height="32" rx="6" fill="#fff8e1" stroke="#c8c4bc" stroke-width="1"/>
  <text x="90" y="187" text-anchor="middle" font-size="13" fill="#4a4a4a">h₃ → bit 9</text>

  <line x1="90" y1="60" x2="90" y2="88" stroke="#6b4c3b" stroke-width="1.5" marker-end="url(#arrow)"/>

  <path d="M 160 106 Q 220 106 260 232" fill="none" stroke="#6b4c3b" stroke-width="1.5" marker-end="url(#arrow)"/>
  <path d="M 160 144 Q 230 144 340 232" fill="none" stroke="#6b4c3b" stroke-width="1.5" marker-end="url(#arrow)"/>
  <path d="M 160 182 Q 240 182 500 232" fill="none" stroke="#6b4c3b" stroke-width="1.5" marker-end="url(#arrow)"/>

  <text x="340" y="222" text-anchor="middle" font-size="11" fill="#8a8a8a" font-weight="600">Bit Array (m = 12)</text>

  <g font-size="14" font-weight="600">
    <rect x="220" y="232" width="40" height="40" rx="4" fill="#fafaf8" stroke="#e0ddd7" stroke-width="1.5"/><text x="240" y="258" text-anchor="middle" fill="#8a8a8a">0</text>
    <rect x="260" y="232" width="40" height="40" rx="4" fill="#fafaf8" stroke="#e0ddd7" stroke-width="1.5"/><text x="280" y="258" text-anchor="middle" fill="#8a8a8a">0</text>
    <rect x="300" y="232" width="40" height="40" rx="4" fill="#6b4c3b" stroke="#6b4c3b" stroke-width="1.5"/><text x="320" y="258" text-anchor="middle" fill="white">1</text>
    <rect x="340" y="232" width="40" height="40" rx="4" fill="#fafaf8" stroke="#e0ddd7" stroke-width="1.5"/><text x="360" y="258" text-anchor="middle" fill="#8a8a8a">0</text>
    <rect x="380" y="232" width="40" height="40" rx="4" fill="#fafaf8" stroke="#e0ddd7" stroke-width="1.5"/><text x="400" y="258" text-anchor="middle" fill="#8a8a8a">0</text>
    <rect x="420" y="232" width="40" height="40" rx="4" fill="#6b4c3b" stroke="#6b4c3b" stroke-width="1.5"/><text x="440" y="258" text-anchor="middle" fill="white">1</text>
    <rect x="460" y="232" width="40" height="40" rx="4" fill="#fafaf8" stroke="#e0ddd7" stroke-width="1.5"/><text x="480" y="258" text-anchor="middle" fill="#8a8a8a">0</text>
    <rect x="500" y="232" width="40" height="40" rx="4" fill="#fafaf8" stroke="#e0ddd7" stroke-width="1.5"/><text x="520" y="258" text-anchor="middle" fill="#8a8a8a">0</text>
    <rect x="540" y="232" width="40" height="40" rx="4" fill="#fafaf8" stroke="#e0ddd7" stroke-width="1.5"/><text x="560" y="258" text-anchor="middle" fill="#8a8a8a">0</text>
  </g>

  <g font-size="10" fill="#8a8a8a">
    <text x="240" y="285" text-anchor="middle">0</text>
    <text x="280" y="285" text-anchor="middle">1</text>
    <text x="320" y="285" text-anchor="middle" fill="#6b4c3b" font-weight="600">2</text>
    <text x="360" y="285" text-anchor="middle">3</text>
    <text x="400" y="285" text-anchor="middle">4</text>
    <text x="440" y="285" text-anchor="middle" fill="#6b4c3b" font-weight="600">5</text>
    <text x="480" y="285" text-anchor="middle">6</text>
    <text x="520" y="285" text-anchor="middle">7</text>
    <text x="560" y="285" text-anchor="middle">8</text>
  </g>

  <defs>
    <marker id="arrow" markerWidth="8" markerHeight="8" refX="6" refY="4" orient="auto">
      <path d="M0,0 L8,4 L0,8 z" fill="#6b4c3b"/>
    </marker>
  </defs>
</svg>
